# xmcd
#
# Track frame offsets: 
#        150
#        17412
#        21661
#        32282
#        79070
#        129092
#
# Disc length: 4114 seconds
#
# Revision: 0
# Processed by: cddbd v1.5.2PL0 Copyright (c) Steve Scherf et al.
# Submitted via: ExactAudioCopy v0.95b3
#
DISCID=37101006
DTITLE=Jimi Hendrix  - In the Studio Reclamation 1967-1970 - Disc 05  
DTITLE=FLAC
DYEAR=1900
DGENRE=
TTITLE0=Bleeding Heart
TTITLE1=Rainy Day Dream Away (false start)
TTITLE2=Rainy Day Dream Away (practice session)
TTITLE3=Rainy Day Dream Away-Still Raining, Still Dreaming
TTITLE4=Send My Love To Linda-Live And Let Live
TTITLE5=Mannish Boy-I'm A Man
EXTD=
EXTT0=
EXTT1=
EXTT2=
EXTT3=
EXTT4=
EXTT5=
PLAYORDER=
